<?xml version="1.0" encoding="UTF-8" standalone="no"?>
<!-- Created with Inkscape (http://www.inkscape.org/) -->

<svg
        xmlns:dc="http://purl.org/dc/elements/1.1/"
        xmlns:cc="http://creativecommons.org/ns#"
        xmlns:rdf="http://www.w3.org/1999/02/22-rdf-syntax-ns#"
        xmlns="http://www.w3.org/2000/svg"
        xmlns:sodipodi="http://sodipodi.sourceforge.net/DTD/sodipodi-0.dtd"
        xmlns:inkscape="http://www.inkscape.org/namespaces/inkscape"
        width="100"
        height="100"
        viewBox="0 0 99.999995 100.00001"
        id="svg2"
        version="1.1"
        inkscape:version="0.91 r13725"
        sodipodi:docname="palanaeum_fav.svg"
        inkscape:export-filename="/home/mstrzelczyk/arcanum/palanaeum/static/palanaeum/img/favicon180.png"
        inkscape:export-xdpi="162"
        inkscape:export-ydpi="162">
  <defs
     id="defs4" />
  <sodipodi:namedview
     id="base"
     pagecolor="#000000"
     bordercolor="#666666"
     borderopacity="1.0"
     inkscape:pageopacity="0"
     inkscape:pageshadow="2"
     inkscape:zoom="5.6"
     inkscape:cx="71.2946"
     inkscape:cy="46.396356"
     inkscape:document-units="px"
     inkscape:current-layer="layer1"
     showgrid="false"
     units="px"
     inkscape:window-width="1920"
     inkscape:window-height="1005"
     inkscape:window-x="0"
     inkscape:window-y="25"
     inkscape:window-maximized="1" />
  <metadata
     id="metadata7">
    <rdf:RDF>
      <cc:Work
         rdf:about="">
        <dc:format>image/svg+xml</dc:format>
        <dc:type
           rdf:resource="http://purl.org/dc/dcmitype/StillImage" />
        <dc:title></dc:title>
      </cc:Work>
    </rdf:RDF>
  </metadata>
  <g
     inkscape:label="Layer 1"
     inkscape:groupmode="layer"
     id="layer1"
     transform="translate(0,-952.36215)">
    <rect
       style="opacity:1;fill:#004c6e;stroke:none;stroke-width:5;stroke-miterlimit:4;stroke-dasharray:none"
       id="rect4730"
       width="100"
       height="100.00001"
       x="-7.6293954e-06"
       y="952.36212" />
    <g
       style="font-style:normal;font-weight:normal;font-size:64.98309326px;line-height:125%;font-family:sans-serif;letter-spacing:0px;word-spacing:0px;fill:#000000;fill-opacity:1;stroke:none;stroke-width:1px;stroke-linecap:butt;stroke-linejoin:miter;stroke-opacity:1"
       id="text4726">
      <path
         d="m 83.134384,975.40288 q 0,2.2211 -0.824981,4.31528 -0.824981,2.03073 -1.205741,4.18837 -1.396121,1.84034 -2.601862,3.8076 -1.205741,1.96726 -2.474942,3.93452 -1.269201,1.96727 -2.665322,3.80761 -1.396122,1.77688 -3.173003,3.23646 0.06346,0.0635 0.06346,0.25384 0,0.38076 -0.38076,0.6346 -0.317301,0.19038 -0.19038,0.50764 -1.586502,1.65 -3.109543,3.2365 -1.523041,1.5865 -2.792242,3.5538 -1.396121,0.698 -2.284562,2.2845 -0.38076,0 -0.571141,0.1904 -0.19038,0.1269 -0.50768,0.2538 -2.030722,2.475 -4.251823,4.6961 -2.221102,2.2211 -4.759504,4.0614 -0.951901,0.6981 -1.903802,1.2692 -0.951901,0.5712 -1.840341,1.2058 -0.571141,0.3807 -1.142281,0.8884 -0.507681,0.5077 -1.078821,0.9519 -1.840342,1.5865 -3.617223,2.6653 -1.776882,1.0154 -4.188364,1.3962 -0.19038,0.698 -0.19038,1.523 l 0,1.523 q 0,0.7616 -0.06346,1.5865 -0.06346,0.7616 -0.44422,1.4596 l 0,0.1904 q 0,0.6346 0.3173,1.2057 0.3173,0.6347 0.3173,1.2693 0,0.4442 -0.44422,0.7615 l 1.649961,0 q 0,0.8884 0.507681,1.523 0.57114,0.6346 0.57114,0.9519 0,1.0788 -0.25384,2.348 -0.19038,1.3327 -1.269201,1.7769 l 0,0.3808 q 0,0.6346 -0.12692,1.2057 -0.12692,0.6346 -0.571141,1.2058 -0.38076,0 -0.76152,0 -0.317301,0.063 -0.634601,0.063 -2.665322,0 -4.759504,-1.2692 -0.69806,-1.6499 -0.951901,-3.4268 -0.19038,-1.7134 -0.19038,-3.4903 0,-3.4903 0.507681,-6.9172 0.50768,-3.4268 0.82498,-6.8537 l 0.951901,-1.8403 q 0.12692,-1.7769 0.444221,-3.5538 0.3173,-1.8403 0.6346,-3.6172 0.3173,-1.7769 0.507681,-3.5537 0.25384,-1.7769 0.19038,-3.5538 0.50768,-1.0788 0.69806,-2.2846 0.25384,-1.2057 0.25384,-2.348 0,-0.6346 -0.06346,-1.2692 -0.06346,-0.6346 -0.38076,-1.2057 0.38076,-0.2539 0.507681,-0.63464 0.12692,-0.38076 0.38076,-0.69806 0.19038,-2.47494 0.3173,-4.88642 0.12692,-2.47495 0.12692,-4.88643 0,-1.33266 -0.06346,-2.60186 -0.06346,-1.33266 -0.19038,-2.66532 -0.06346,-0.50768 -0.25384,-1.20574 -0.12692,-0.69806 -0.12692,-1.07882 0,-0.50768 0.06346,-1.01536 0.06346,-0.57114 0.06346,-1.14229 0,-0.6346 -0.12692,-1.20574 -0.12692,-0.6346 -0.444221,-1.14228 -3.046082,0.88844 -5.457564,2.41149 -2.411482,1.45958 -4.886424,3.29992 -1.015361,0.69806 -2.221102,1.64996 -1.205741,0.9519 -2.284562,1.45958 -0.19038,0.12692 -0.44422,0.19038 -0.3173,0 -0.507681,0 -0.69806,0 -1.269201,-0.0635 -0.57114,-0.12692 -1.142281,-0.12692 -0.88844,-0.88844 -2.094181,-1.39612 -0.190381,-0.76152 -0.190381,-1.64996 0,-0.88844 0.190381,-1.71342 0.12692,-0.82498 0.44422,-1.64996 0.761521,-0.25385 1.649961,-0.57115 0.824981,-0.3173 1.649962,-0.69806 0.76152,-0.44422 1.396121,-0.9519 0.6346,-0.57114 1.015361,-1.39612 0.38076,0.19038 0.69806,0.19038 0.317301,0 0.571141,-0.0635 0.25384,-0.0635 0.57114,-0.12692 1.142281,-0.69806 2.284562,-1.45958 1.205741,-0.76152 2.474942,-1.2692 0.38076,-0.12692 0.44422,-0.3173 0.06346,-0.19038 0,-0.57114 1.459582,-0.44422 3.046083,-1.01536 1.586501,-0.6346 2.665322,-1.71342 l 1.142281,0 q 0.951901,-0.69806 2.030722,-1.14228 1.078821,-0.44422 2.157642,-0.82498 1.14228,-0.44423 2.221101,-0.88845 1.078821,-0.50768 2.030722,-1.2692 0.38076,-0.12692 0.634601,-0.12692 0.3173,0 0.69806,0.12692 0.634601,-0.3173 1.078821,-0.76152 l 1.015361,-1.01536 q 1.015361,0 1.840341,-0.19038 0.824981,-0.19038 1.586502,-0.50768 0.76152,-0.3173 1.459581,-0.69806 0.76152,-0.44422 1.649961,-0.88844 0.38076,0.12692 0.571141,0.3173 0.19038,0.12692 0.6346,0.12692 0.634601,-0.44422 1.332661,-0.6346 0.761521,-0.25384 1.523042,-0.38076 0.76152,-0.12692 1.459581,-0.3173 0.76152,-0.19038 1.332661,-0.69806 2.030721,0 4.061443,-0.0635 2.094182,-0.12692 4.124903,-0.12692 2.919163,0 5.901785,0.44422 3.046083,0.44422 5.457565,2.2211 0.951901,2.28456 2.728782,3.87106 0.12692,0.69806 0.25384,1.33267 0.19038,0.57114 0.444221,1.14228 -0.444221,0.9519 -0.444221,2.09418 0,1.14228 0.19038,2.28456 0.253841,1.07882 0.253841,2.15764 z m -5.901785,-1.52304 q -0.3173,-0.57114 -0.444221,-1.2692 -0.06346,-0.76152 0,-1.45958 -0.82498,-0.6346 -1.269201,-1.64996 -0.44422,-1.01536 -1.269201,-1.52304 -0.57114,-0.3173 -1.649961,-0.38076 -1.015361,-0.0635 -1.713421,-0.25385 -0.824981,-0.25384 -1.142281,-0.50768 -0.253841,-0.25384 -1.142281,-0.25384 -0.761521,0 -1.523042,0.19038 -0.76152,0.12692 -1.523041,0.12692 -0.6346,0 -1.205741,-0.25384 -0.57114,-0.25384 -1.205741,-0.25384 -0.69806,0 -1.332661,0.44422 -0.57114,0.44422 -1.396121,0.25384 -0.38076,0.3173 -0.44422,0.50769 0,0.19038 -0.06346,0.3173 -0.06346,0.0635 -0.317301,0.0635 l -0.88844,0 q -1.332661,0 -2.728783,0.38076 -1.332661,0.38076 -2.411482,1.2692 -0.19038,-0.0635 -0.38076,-0.0635 -0.12692,-0.0635 -0.3173,-0.0635 -1.078821,0 -2.094182,0.6346 -0.951901,0.57114 -2.157642,0.57114 -0.76152,0.76152 -1.840341,1.20574 -1.078821,0.44422 -2.221102,0.88844 -1.078821,0.38076 -2.030722,0.9519 -0.9519,0.50768 -1.459581,1.52304 -0.06346,0.50768 0.3173,0.6346 0.380761,0.12692 0.380761,0.6346 0,0.44422 -0.19038,1.07882 -0.126921,0.6346 -0.126921,1.2692 0,1.45959 0.317301,2.85571 0.3173,1.39612 0.6346,2.8557 -0.3173,0.19038 -0.44422,0.57114 -0.12692,0.38076 -0.444221,0.57114 0.888441,2.66532 0.888441,5.45756 0,2.22111 -0.50768,4.37875 -0.444221,2.09418 -0.634601,4.31528 l 0,0.0635 q 0,0.38078 0.25384,0.50768 0.253841,0.1269 0.253841,0.4442 0,0.1904 -0.06346,0.3173 -0.698061,4.3153 -1.396121,8.6306 -0.634601,4.3153 -1.078821,8.694 l 0.50768,0 q 1.649961,0 2.919162,-0.9519 1.332662,-1.0153 2.221102,-2.2211 l 1.015361,0 q 4.569124,-3.998 8.757487,-8.2498 4.251824,-4.2518 8.059427,-9.13824 0.50768,0 0.69806,-0.25384 0.190381,-0.25384 0.634601,-0.38076 1.332661,-1.84034 2.792242,-3.61722 1.459581,-1.84035 3.173003,-3.49031 0.06346,-0.6346 0.3173,-1.14228 0.3173,-0.50768 0.634601,-0.9519 0.3173,-0.44422 0.57114,-0.9519 0.25384,-0.50768 0.25384,-1.20574 0.317301,-0.12692 0.698061,-0.25384 0.38076,-0.19038 0.69806,-0.50768 0.126921,-0.6346 0.444221,-1.14228 0.3173,-0.50768 0.3173,-1.14228 0,-0.25384 -0.12692,-0.6346 1.015361,-0.44422 1.586501,-1.45958 0.571141,-1.01536 0.888441,-2.22111 0.3173,-1.2692 0.44422,-2.5384 0.190381,-1.2692 0.507681,-2.2211 z"
         style="font-style:normal;font-variant:normal;font-weight:normal;font-stretch:normal;font-family:'Rock Salt';-inkscape-font-specification:'Rock Salt';fill:#ffffff"
         id="path4752" />
    </g>
  </g>
</svg>
