<?xml version="1.0" encoding="UTF-8" standalone="no"?>
<!-- Created with Inkscape (http://www.inkscape.org/) -->

<svg
        xmlns:dc="http://purl.org/dc/elements/1.1/"
        xmlns:cc="http://creativecommons.org/ns#"
        xmlns:rdf="http://www.w3.org/1999/02/22-rdf-syntax-ns#"
        xmlns="http://www.w3.org/2000/svg"
        xmlns:sodipodi="http://sodipodi.sourceforge.net/DTD/sodipodi-0.dtd"
        xmlns:inkscape="http://www.inkscape.org/namespaces/inkscape"
        width="370"
        height="150"
        viewBox="0 0 369.99998 150.00001"
        id="svg2"
        version="1.1"
        inkscape:version="0.91 r13725"
        sodipodi:docname="palanaeum_logo.svg">
  <defs
     id="defs4" />
  <sodipodi:namedview
     id="base"
     pagecolor="#000000"
     bordercolor="#666666"
     borderopacity="1.0"
     inkscape:pageopacity="0"
     inkscape:pageshadow="2"
     inkscape:zoom="1.4"
     inkscape:cx="280.2928"
     inkscape:cy="144.11616"
     inkscape:document-units="px"
     inkscape:current-layer="layer1"
     showgrid="false"
     units="px"
     inkscape:window-width="1920"
     inkscape:window-height="1005"
     inkscape:window-x="0"
     inkscape:window-y="25"
     inkscape:window-maximized="1" />
  <metadata
     id="metadata7">
    <rdf:RDF>
      <cc:Work
         rdf:about="">
        <dc:format>image/svg+xml</dc:format>
        <dc:type
           rdf:resource="http://purl.org/dc/dcmitype/StillImage" />
        <dc:title></dc:title>
      </cc:Work>
    </rdf:RDF>
  </metadata>
  <g
     inkscape:label="Layer 1"
     inkscape:groupmode="layer"
     id="layer1"
     transform="translate(0,-902.36214)">
    <g
       style="font-style:normal;font-weight:normal;font-size:54.18463135px;line-height:125%;font-family:sans-serif;letter-spacing:0px;word-spacing:0px;fill:#ffffff;fill-opacity:1;stroke:none;stroke-width:1px;stroke-linecap:butt;stroke-linejoin:miter;stroke-opacity:1"
       id="text4684">
      <path
         d="m 66.934469,953.33719 q 0,1.85201 -0.687891,3.5982 -0.687891,1.69327 -1.005379,3.49237 -1.164123,1.53452 -2.169502,3.17488 -1.005379,1.64035 -2.063672,3.28071 -1.058294,1.64035 -2.222417,3.17488 -1.164123,1.48161 -2.645734,2.69865 0.05291,0.0529 0.05291,0.21166 0,0.31749 -0.317488,0.52914 -0.264574,0.15875 -0.158744,0.42332 -1.322867,1.37578 -2.59282,2.69865 -1.269952,1.32287 -2.328246,2.96322 -1.164122,0.58206 -1.904928,1.90493 -0.317488,0 -0.476232,0.15874 -0.158744,0.10583 -0.423318,0.21166 -1.693269,2.06368 -3.545283,3.91569 -1.852014,1.85201 -3.968601,3.38654 -0.79372,0.58206 -1.58744,1.05829 -0.793721,0.47623 -1.534526,1.00538 -0.476232,0.31749 -0.952464,0.74081 -0.423318,0.42331 -0.89955,0.79372 -1.534525,1.32286 -3.016136,2.22241 -1.481612,0.84664 -3.492369,1.16413 -0.158744,0.58206 -0.158744,1.26995 l 0,1.26995 q 0,0.63498 -0.05291,1.32283 -0.05291,0.635 -0.370403,1.2171 l 0,0.1587 q 0,0.5292 0.264574,1.0054 0.264573,0.5291 0.264573,1.0583 0,0.3704 -0.370403,0.635 l 1.375782,0 q 0,0.7408 0.423317,1.2699 0.476232,0.5292 0.476232,0.7937 0,0.8996 -0.211658,1.9579 -0.158744,1.1112 -1.058294,1.4816 l 0,0.3175 q 0,0.5291 -0.105829,1.0054 -0.10583,0.5291 -0.476232,1.0053 -0.317488,0 -0.634976,0 -0.264574,0.053 -0.529147,0.053 -2.222417,0 -3.968601,-1.0583 -0.582062,-1.3758 -0.79372,-2.8574 -0.158744,-1.4287 -0.158744,-2.9103 0,-2.9103 0.423317,-5.76774 0.423317,-2.85739 0.687891,-5.71478 l 0.79372,-1.53453 q 0.105829,-1.48161 0.370403,-2.96322 0.264573,-1.53453 0.529147,-3.01614 0.264573,-1.48161 0.423317,-2.96322 0.211659,-1.48161 0.158744,-2.96322 0.423317,-0.89955 0.582062,-1.90493 0.211658,-1.00538 0.211658,-1.95784 0,-0.52915 -0.05291,-1.0583 -0.05292,-0.52914 -0.317489,-1.00538 0.317489,-0.21165 0.423318,-0.52914 0.105829,-0.31749 0.317488,-0.58206 0.158744,-2.06368 0.264573,-4.07443 0.10583,-2.06368 0.10583,-4.07443 0,-1.11121 -0.05292,-2.16951 -0.05291,-1.1112 -0.158744,-2.22241 -0.05291,-0.42332 -0.211659,-1.00538 -0.105829,-0.58206 -0.105829,-0.89955 0,-0.42332 0.05292,-0.84664 0.05291,-0.47623 0.05291,-0.95246 0,-0.52915 -0.105829,-1.00538 -0.105829,-0.52915 -0.370403,-0.95246 -2.539904,0.7408 -4.550662,2.01075 -2.010758,1.21704 -4.07443,2.75157 -0.846635,0.58206 -1.852014,1.37578 -1.005379,0.79372 -1.904929,1.21704 -0.158744,0.10583 -0.370402,0.15874 -0.264574,0 -0.423318,0 -0.582061,0 -1.058293,-0.0529 -0.476233,-0.10583 -0.952465,-0.10583 -0.740805,-0.74081 -1.7461841,-1.16413 -0.158744,-0.63497 -0.158744,-1.37578 0,-0.7408 0.158744,-1.42869 0.1058291,-0.6879 0.3704031,-1.37579 0.634976,-0.21165 1.375781,-0.47623 0.687891,-0.26457 1.375782,-0.58206 0.634976,-0.3704 1.164123,-0.79372 0.529147,-0.47623 0.846635,-1.16412 0.317488,0.15874 0.582061,0.15874 0.264574,0 0.476232,-0.0529 0.211659,-0.0529 0.476232,-0.10583 0.952465,-0.58206 1.904929,-1.21704 1.005379,-0.63498 2.063672,-1.05829 0.317488,-0.10583 0.370403,-0.26458 0.05292,-0.15874 0,-0.47623 1.217038,-0.3704 2.539905,-0.84663 1.322867,-0.52915 2.222416,-1.4287 l 0.952464,0 q 0.793721,-0.58206 1.69327,-0.95246 0.89955,-0.37041 1.799099,-0.6879 0.952465,-0.3704 1.852014,-0.7408 0.89955,-0.42332 1.69327,-1.05829 0.317488,-0.10583 0.529147,-0.10583 0.264573,0 0.582061,0.10583 0.529147,-0.26458 0.89955,-0.63498 l 0.846634,-0.84664 q 0.846635,0 1.534526,-0.15874 0.687891,-0.15874 1.322867,-0.42332 0.634976,-0.26457 1.217038,-0.58206 0.634976,-0.3704 1.375781,-0.7408 0.317488,0.10583 0.476233,0.26457 0.158744,0.10583 0.529146,0.10583 0.529147,-0.3704 1.111209,-0.52915 0.634976,-0.21166 1.269952,-0.31749 0.634976,-0.10583 1.217037,-0.26457 0.634977,-0.15874 1.111209,-0.58206 1.693269,0 3.386539,-0.0529 1.746185,-0.10583 3.439454,-0.10583 2.434076,0 4.921066,0.37041 2.539904,0.3704 4.550662,1.85201 0.79372,1.90493 2.275331,3.2278 0.105829,0.58206 0.211659,1.1112 0.158744,0.47624 0.370403,0.95247 -0.370403,0.79372 -0.370403,1.74618 0,0.95247 0.158744,1.90493 0.211659,0.89955 0.211659,1.7991 z m -4.921066,-1.26995 q -0.264573,-0.47623 -0.370402,-1.05829 -0.05291,-0.63498 0,-1.21704 -0.687891,-0.52915 -1.058294,-1.37578 -0.370403,-0.84664 -1.058293,-1.26996 -0.476233,-0.26457 -1.375782,-0.31748 -0.846635,-0.0529 -1.428696,-0.21166 -0.687891,-0.21166 -0.952465,-0.42332 -0.211658,-0.21166 -0.952464,-0.21166 -0.634976,0 -1.269952,0.15874 -0.634976,0.10583 -1.269953,0.10583 -0.529146,0 -1.005378,-0.21165 -0.476233,-0.21166 -1.005379,-0.21166 -0.582062,0 -1.111209,0.3704 -0.476232,0.3704 -1.164123,0.21166 -0.317488,0.26457 -0.370402,0.42332 0,0.15874 -0.05291,0.26457 -0.05291,0.0529 -0.264573,0.0529 l -0.740806,0 q -1.111208,0 -2.275331,0.31749 -1.111208,0.31749 -2.010758,1.0583 -0.158744,-0.0529 -0.317488,-0.0529 -0.105829,-0.0529 -0.264573,-0.0529 -0.89955,0 -1.746185,0.52914 -0.79372,0.47623 -1.799099,0.47623 -0.634976,0.63498 -1.534526,1.00538 -0.899549,0.37041 -1.852013,0.74081 -0.89955,0.31749 -1.69327,0.79372 -0.79372,0.42332 -1.217038,1.26995 -0.05291,0.42332 0.264574,0.52915 0.317488,0.10583 0.317488,0.52915 0,0.3704 -0.158744,0.89954 -0.10583,0.52915 -0.10583,1.0583 0,1.21704 0.264574,2.38116 0.264573,1.16412 0.529147,2.38116 -0.264574,0.15874 -0.370403,0.47623 -0.105829,0.31749 -0.370403,0.47623 0.740806,2.22242 0.740806,4.55067 0,1.85201 -0.423318,3.65111 -0.370403,1.74618 -0.529147,3.5982 l 0,0.0529 q 0,0.31749 0.211659,0.42332 0.211659,0.10583 0.211659,0.3704 0,0.15875 -0.05291,0.26458 -0.582061,3.59819 -1.164123,7.19639 -0.529147,3.5982 -0.899549,7.24931 l 0.423317,0 q 1.375782,0 2.434075,-0.79372 1.111209,-0.84663 1.852014,-1.85201 l 0.846635,0 q 3.809857,-3.33363 7.302226,-6.87891 3.545283,-3.54528 6.720164,-7.61971 0.423317,0 0.582061,-0.21166 0.158744,-0.21166 0.529147,-0.31749 1.111208,-1.53453 2.328246,-3.01614 1.217038,-1.53452 2.645734,-2.9103 0.05291,-0.52915 0.264573,-0.95247 0.264574,-0.42332 0.529147,-0.79372 0.264574,-0.3704 0.476232,-0.79372 0.211659,-0.42332 0.211659,-1.00538 0.264573,-0.10583 0.582061,-0.21166 0.317489,-0.15874 0.582062,-0.42331 0.105829,-0.52915 0.370403,-0.95247 0.264573,-0.42332 0.264573,-0.95246 0,-0.21166 -0.105829,-0.52915 0.846635,-0.3704 1.322867,-1.21704 0.476232,-0.84663 0.740805,-1.85201 0.264574,-1.05829 0.370403,-2.11659 0.158744,-1.05829 0.423317,-1.85201 z"
         style="font-style:normal;font-variant:normal;font-weight:normal;font-stretch:normal;font-family:'Rock Salt';-inkscape-font-specification:'Rock Salt';fill:#ffffff;stroke:none"
         id="path4708" />
      <path
         d="m 101.11735,997.3622 q -0.15874,0.74081 -0.68789,1.21704 -0.476233,0.42332 -1.164124,0.68789 -0.687891,0.26458 -1.428696,0.37041 -0.687891,0.0529 -1.269952,0.0529 -0.264574,0 -0.529147,0 -0.211659,-0.0529 -0.476232,-0.0529 -0.264574,0 -0.264574,0.26457 0,0.26459 -0.264573,0.37039 -0.264574,-0.1058 -0.529147,-0.1587 -0.264573,-0.053 -0.529147,-0.053 -0.370403,0 -0.740805,0.053 -0.317488,0.053 -0.634976,0.053 -0.423318,0 -0.634977,-0.1058 -0.158744,-0.10588 -0.317488,-0.21171 -0.105829,-0.15874 -0.264573,-0.31748 -0.105829,-0.15875 -0.370403,-0.26458 -0.370403,-0.15874 -0.634976,-0.0529 -0.211659,0.10583 -0.687891,-0.31749 -0.634976,-0.52915 -1.111208,-1.26995 -0.423317,-0.79372 -0.846635,-1.64036 -0.423317,-0.84663 -0.899549,-1.69327 -0.476233,-0.84663 -1.111209,-1.48161 l -0.423317,0 q -0.952464,0 -1.322867,0.79372 -0.264573,-0.15874 -0.529147,-0.3704 -0.264573,-0.26457 -0.582061,-0.42332 -1.217038,0.3704 -2.539905,0.63498 -1.322867,0.26457 -2.645734,0.26457 l -0.740805,0 q -0.317488,0 -0.687891,-0.10583 -0.529147,0.21166 -0.952464,0.52915 -0.423318,0.26457 -0.952465,0.26457 -0.317488,0 -0.740805,-0.21166 -0.317488,0 -0.317488,0.26458 0.05291,0.26457 -0.317488,0.26457 l -0.476232,0 q -0.740806,0 -1.481611,0.0529 -0.687891,0.0529 -1.428697,0.0529 -1.005379,0 -2.063672,-0.26457 -0.264574,0.15874 -0.582062,0.15874 -0.211658,0.10583 -0.317488,0.3704 -0.105829,0.21166 -0.211659,0.42332 -0.105829,0.15874 -0.317488,0.31749 -0.158744,0.10583 -0.476232,0.0529 -0.105829,0.63498 -0.529147,1.00538 -0.423317,0.3704 -0.423317,1.11121 -0.582061,0.31749 -0.952464,0.79372 -0.370403,0.47623 -0.740806,1.00538 -0.370402,0.52912 -0.79372,1.00542 -0.370403,0.4762 -0.952464,0.7408 -0.264573,0.3175 -0.158744,1.0053 -0.582062,0.4763 -1.428696,0.8467 -0.846635,0.3704 -1.587441,0.3704 -1.534526,0 -2.116587,-1.6404 0,-0.5291 0.105829,-1.1112 0.05292,-0.635 0.211659,-1.16411 0.158744,-0.58206 0.476232,-1.00537 0.317488,-0.47624 0.89955,-0.6879 0,-0.47623 -0.317488,-0.63497 -0.317488,-0.21166 -0.264574,-0.68789 1.428697,-0.68789 2.48699,-1.7991 1.058294,-1.11121 1.904929,-2.32825 0.899549,-1.26995 1.799099,-2.5399 0.899549,-1.26995 2.010758,-2.27533 l 0,-1.11121 q 1.58744,-1.69327 2.063672,-3.80986 0.582061,-0.10583 0.740806,-0.52915 0.211658,-0.42331 0.211658,-1.00537 0.264574,0 0.317488,-0.21166 0.10583,-0.26458 0.476232,-0.15875 0.476233,-1.26995 1.058294,-2.32824 0.582061,-1.0583 1.164123,-2.11659 0.582061,-1.11121 1.005379,-2.27533 0.476232,-1.16412 0.687891,-2.59282 0.740805,-0.0529 0.79372,-0.68789 0.105829,-0.68789 0.211659,-1.21704 0.79372,-0.7408 1.164123,-1.74618 0.423317,-1.00538 0.740805,-2.06368 0.317488,-1.1112 0.687891,-2.1695 0.423317,-1.11121 1.164123,-1.95784 l 0,-0.15874 q 0,-0.26458 -0.211659,-0.31749 -0.211659,-0.10583 -0.211659,-0.37041 0.05291,-0.0529 0.05291,-0.10583 0.634976,-0.26457 0.952464,-0.84663 0.317488,-0.63498 0.952464,-0.89955 1.111209,0.89955 1.957844,1.11121 0.846634,0.15874 2.222416,0.26457 0.687891,0.74081 0.740806,1.7991 0.105829,1.00538 0.370402,2.01076 0.423318,1.69327 0.89955,3.33362 0.529147,1.58744 0.79372,3.28071 0.158744,1.00538 0.582062,1.90493 0.423317,0.89955 0.582061,1.85202 0.105829,0.7408 0,1.69327 -0.105829,0.89955 0.211659,1.58744 l 0.370403,0.84663 q 0.264573,0.58206 0.423317,1.21704 0.211659,0.63497 0.370403,1.26995 0.423317,1.58744 0.740805,3.43946 0.370403,1.79909 1.111208,3.28071 0.264574,0.52914 0.793721,0.7408 0.582061,0.21166 1.269952,0.31749 0.687891,0.0529 1.322867,0.0529 0.687891,-0.0529 1.164123,-0.0529 l 0.529147,0 q 0.317488,0 0.634976,0.10583 0.211659,0.42332 0.211659,0.7408 0,0.63498 -0.423318,1.00538 -0.423317,0.37041 -0.423317,0.84664 0,0.26457 0.211658,0.58206 -0.211658,-0.0529 -0.634976,-0.0529 -1.217037,0 -2.38116,0.42332 0.423317,0.89955 1.111208,1.53453 0.740805,0.58206 1.534526,1.11121 0.529146,-0.42332 1.111208,-0.42332 0.634976,0 1.164123,0.31749 0.582061,0.26457 1.217037,0.26457 0.476233,0 0.687891,-0.15874 0.423322,0.47623 0.687892,1.00537 0.26457,0.47624 0.68789,0.89955 z m -16.562295,-8.46634 q -0.105829,-0.89955 -0.370402,-1.26996 -0.211659,-0.42331 -0.370403,-1.00538 -0.211659,-0.7408 -0.317488,-1.58744 -0.05291,-0.84663 -0.211659,-1.64035 -0.370403,-1.7991 -0.846635,-3.5982 -0.423317,-1.7991 -1.111208,-3.49237 0.211659,-0.31749 0.211659,-0.58206 l 0,-0.15874 q -0.476232,-0.52915 -0.687891,-1.26996 -0.211659,-0.79372 -0.423318,-1.53452 -0.158744,-0.79372 -0.476232,-1.4287 -0.264573,-0.68789 -0.899549,-1.11121 -0.158744,0.31749 -0.158744,0.74081 0,0.3704 0.05291,0.68789 0.10583,0.31749 0.10583,0.68789 -0.529147,0.26457 -0.79372,0.84664 -0.211659,0.52914 -0.740806,0.84663 -0.423317,1.69327 -1.217038,3.2278 -0.79372,1.48161 -1.693269,2.96322 -0.846635,1.48161 -1.640355,3.01613 -0.793721,1.48162 -1.269953,3.12197 -0.68789,0.47623 -0.952464,1.21704 -0.211659,0.7408 -0.211659,1.48161 0.476233,0.26457 1.058294,0.31749 0.634976,0 1.217038,0 0.582061,0 1.111208,0.10583 0.529147,0.10583 0.952464,0.52914 0.687891,-0.21166 1.481611,-0.26457 0.846635,-0.10583 1.375782,-0.47623 1.058293,0.3704 2.275331,0.3704 0.634976,0 1.217038,-0.10583 0.634976,-0.10583 1.217037,-0.26457 0.476232,0.10583 0.740806,0.3704 0.264573,0.21166 0.79372,0.15874 0.264573,-0.21165 0.317488,-0.42331 0.05291,-0.26458 0.264573,-0.47623 z"
         style="font-style:normal;font-variant:normal;font-weight:normal;font-stretch:normal;font-family:'Rock Salt';-inkscape-font-specification:'Rock Salt';fill:#ffffff;stroke:none"
         id="path4710" />
      <path
         d="m 129.53253,987.6259 q 0,0.58206 -0.42332,0.89955 -0.42331,0.26458 -0.42331,0.74081 0,0.21166 0.21165,0.52914 -0.7408,0 -1.00537,0.47624 -0.26458,0.47623 -0.52915,1.05829 l -0.68789,0 q -0.26458,0 -0.42332,0.10583 -0.15874,0.10583 -0.31749,0.31749 -0.10583,0.15874 -0.31749,0.52914 -1.00537,0.21166 -1.95784,0.6879 -0.89955,0.42331 -1.7991,0.95246 -0.84663,0.47623 -1.74618,1.00538 -0.89955,0.47623 -1.85202,0.79372 -0.47623,0.79372 -1.37578,1.26995 l -0.15874,0 q -0.26458,0.0529 -0.47623,-0.0529 -0.15875,-0.15875 -0.42332,-0.15875 -0.15875,0 -0.21166,0.0529 -1.58744,1.05829 -3.54528,1.05829 -0.52915,0 -1.00538,-0.0529 -0.47623,-0.10583 -1.00538,-0.10583 -0.15875,0 -0.21166,0.10583 l -0.10583,0.21165 q -0.0529,0.10583 -0.15874,0.21166 -0.0529,0.10583 -0.37041,0.10583 -0.58206,0 -1.16412,-0.15874 -0.58206,-0.15875 -1.21704,-0.0529 -1.21703,-0.68789 -1.90493,-1.32286 -0.68789,-0.63498 -1.26995,-1.90493 -0.26457,-0.58206 -0.7408,-1.11121 -0.42332,-0.52915 -0.63498,-1.16412 -0.0529,-0.21166 -0.15874,-0.74081 -0.10583,-0.58206 -0.21166,-1.21704 -0.10583,-0.63497 -0.21166,-1.21703 -0.0529,-0.58206 -0.0529,-0.79372 0,-0.63498 0.0529,-1.21704 0.10583,-0.63498 0.21166,-1.26995 0.31749,-2.01076 0.42332,-4.02152 0.15874,-2.06367 0.89955,-3.9686 -0.10583,-0.58206 -0.10583,-1.11121 l 0,-1.16412 q 0,-1.00538 -0.26458,-1.69327 0.42332,-0.68789 0.42332,-1.53453 0,-0.95246 -0.79372,-1.1112 l 0,-0.15875 q 0,-1.11121 -0.74081,-1.74618 0,-1.85202 0.89955,-2.75157 0.95247,-0.95246 2.48699,-1.64035 0.21166,-0.31749 0.15875,-0.52915 0.3704,0.10583 0.68789,0.21166 0.31749,0.10583 0.63497,0.10583 0.52915,0 0.95247,-0.15874 0.15874,0.63497 0.79372,0.79372 0.68789,0.10583 1.11121,0.31748 l 0,0.68789 q 0,1.64036 0.79372,3.12197 -0.21166,0.42332 -0.26458,0.89955 -0.0529,0.47623 -0.0529,0.89955 0,0.63498 0.0529,1.26995 0.0529,0.63498 0.0529,1.21704 0,0.63498 -0.15875,1.26995 -0.10582,0.63498 -0.58206,1.11121 -0.0529,0.68789 -0.10583,1.58744 0,0.84664 -0.10583,1.74619 -0.0529,0.89954 -0.26457,1.74618 -0.21166,0.84663 -0.63497,1.37578 -0.0529,0.79372 -0.10583,1.64036 0,0.79372 0,1.53452 0,1.16412 0.10583,2.75157 0.15874,1.58744 0.7408,2.64573 0.26457,0.42332 1.00538,0.63498 0.79372,0.21165 1.26995,0.21165 0.58206,0 1.16412,-0.15874 0.63498,-0.21166 0.89955,-0.68789 0.31749,0.0529 0.42332,0.31749 0.10583,0.26457 0.3704,0.42331 3.01614,-1.26995 6.03228,-2.43407 3.01613,-1.16412 5.92644,-2.69865 0.42332,0.21166 0.89955,0.21166 0.52915,0 1.05829,-0.10583 0.52915,-0.10583 1.0583,-0.10583 l 0.3704,0 q 0.10583,0.31749 0.10583,0.47623 z"
         style="font-style:normal;font-variant:normal;font-weight:normal;font-stretch:normal;font-family:'Rock Salt';-inkscape-font-specification:'Rock Salt';fill:#ffffff;stroke:none"
         id="path4712" />
      <path
         d="m 168.53065,997.3622 q -0.15874,0.74081 -0.68789,1.21704 -0.47623,0.42332 -1.16412,0.68789 -0.68789,0.26458 -1.4287,0.37041 -0.68789,0.0529 -1.26995,0.0529 -0.26457,0 -0.52915,0 -0.21165,-0.0529 -0.47623,-0.0529 -0.26457,0 -0.26457,0.26457 0,0.26459 -0.26457,0.37039 -0.26458,-0.1058 -0.52915,-0.1587 -0.26457,-0.053 -0.52915,-0.053 -0.3704,0 -0.7408,0.053 -0.31749,0.053 -0.63498,0.053 -0.42332,0 -0.63498,-0.1058 -0.15874,-0.10588 -0.31748,-0.21171 -0.10583,-0.15874 -0.26458,-0.31748 -0.10583,-0.15875 -0.3704,-0.26458 -0.3704,-0.15874 -0.63498,-0.0529 -0.21166,0.10583 -0.68789,-0.31749 -0.63497,-0.52915 -1.11121,-1.26995 -0.42331,-0.79372 -0.84663,-1.64036 -0.42332,-0.84663 -0.89955,-1.69327 -0.47623,-0.84663 -1.11121,-1.48161 l -0.42332,0 q -0.95246,0 -1.32286,0.79372 -0.26458,-0.15874 -0.52915,-0.3704 -0.26457,-0.26457 -0.58206,-0.42332 -1.21704,0.3704 -2.53991,0.63498 -1.32286,0.26457 -2.64573,0.26457 l -0.74081,0 q -0.31748,0 -0.68789,-0.10583 -0.52914,0.21166 -0.95246,0.52915 -0.42332,0.26457 -0.95246,0.26457 -0.31749,0 -0.74081,-0.21166 -0.31749,0 -0.31749,0.26458 0.0529,0.26457 -0.31749,0.26457 l -0.47623,0 q -0.7408,0 -1.48161,0.0529 -0.68789,0.0529 -1.4287,0.0529 -1.00537,0 -2.06367,-0.26457 -0.26457,0.15874 -0.58206,0.15874 -0.21166,0.10583 -0.31749,0.3704 -0.10583,0.21166 -0.21166,0.42332 -0.10583,0.15874 -0.31748,0.31749 -0.15875,0.10583 -0.47624,0.0529 -0.10583,0.63498 -0.52914,1.00538 -0.42332,0.3704 -0.42332,1.11121 -0.58206,0.31749 -0.95246,0.79372 -0.37041,0.47623 -0.74081,1.00538 -0.3704,0.52912 -0.79372,1.00542 -0.3704,0.4762 -0.95246,0.7408 -0.26458,0.3175 -0.15875,1.0053 -0.58206,0.4763 -1.4287,0.8467 -0.84663,0.3704 -1.58744,0.3704 -1.53452,0 -2.11658,-1.6404 0,-0.5291 0.10583,-1.1112 0.0529,-0.635 0.21166,-1.16411 0.15874,-0.58206 0.47623,-1.00537 0.31749,-0.47624 0.89955,-0.6879 0,-0.47623 -0.31749,-0.63497 -0.31749,-0.21166 -0.26457,-0.68789 1.42869,-0.68789 2.48699,-1.7991 1.05829,-1.11121 1.90492,-2.32825 0.89955,-1.26995 1.7991,-2.5399 0.89955,-1.26995 2.01076,-2.27533 l 0,-1.11121 q 1.58744,-1.69327 2.06367,-3.80986 0.58206,-0.10583 0.74081,-0.52915 0.21166,-0.42331 0.21166,-1.00537 0.26457,0 0.31749,-0.21166 0.10583,-0.26458 0.47623,-0.15875 0.47623,-1.26995 1.05829,-2.32824 0.58206,-1.0583 1.16412,-2.11659 0.58207,-1.11121 1.00538,-2.27533 0.47624,-1.16412 0.68789,-2.59282 0.74081,-0.0529 0.79372,-0.68789 0.10583,-0.68789 0.21166,-1.21704 0.79372,-0.7408 1.16413,-1.74618 0.42331,-1.00538 0.7408,-2.06368 0.31749,-1.1112 0.68789,-2.1695 0.42332,-1.11121 1.16413,-1.95784 l 0,-0.15874 q 0,-0.26458 -0.21166,-0.31749 -0.21166,-0.10583 -0.21166,-0.37041 0.0529,-0.0529 0.0529,-0.10583 0.63498,-0.26457 0.95247,-0.84663 0.31748,-0.63498 0.95246,-0.89955 1.11121,0.89955 1.95784,1.11121 0.84664,0.15874 2.22242,0.26457 0.68789,0.74081 0.74081,1.7991 0.10583,1.00538 0.3704,2.01076 0.42332,1.69327 0.89955,3.33362 0.52915,1.58744 0.79372,3.28071 0.15874,1.00538 0.58206,1.90493 0.42332,0.89955 0.58206,1.85202 0.10583,0.7408 0,1.69327 -0.10583,0.89955 0.21166,1.58744 l 0.3704,0.84663 q 0.26458,0.58206 0.42332,1.21704 0.21166,0.63497 0.3704,1.26995 0.42332,1.58744 0.74081,3.43946 0.3704,1.79909 1.11121,3.28071 0.26457,0.52914 0.79372,0.7408 0.58206,0.21166 1.26995,0.31749 0.68789,0.0529 1.32287,0.0529 0.68789,-0.0529 1.16412,-0.0529 l 0.52915,0 q 0.31748,0 0.63497,0.10583 0.21166,0.42332 0.21166,0.7408 0,0.63498 -0.42332,1.00538 -0.42331,0.37041 -0.42331,0.84664 0,0.26457 0.21165,0.58206 -0.21165,-0.0529 -0.63497,-0.0529 -1.21704,0 -2.38116,0.42332 0.42332,0.89955 1.11121,1.53453 0.7408,0.58206 1.53452,1.11121 0.52915,-0.42332 1.11121,-0.42332 0.63498,0 1.16412,0.31749 0.58206,0.26457 1.21704,0.26457 0.47623,0 0.68789,-0.15874 0.42332,0.47623 0.68789,1.00537 0.26458,0.47624 0.68789,0.89955 z m -16.56229,-8.46634 q -0.10583,-0.89955 -0.3704,-1.26996 -0.21166,-0.42331 -0.37041,-1.00538 -0.21166,-0.7408 -0.31748,-1.58744 -0.0529,-0.84663 -0.21166,-1.64035 -0.37041,-1.7991 -0.84664,-3.5982 -0.42332,-1.7991 -1.11121,-3.49237 0.21166,-0.31749 0.21166,-0.58206 l 0,-0.15874 q -0.47623,-0.52915 -0.68789,-1.26996 -0.21166,-0.79372 -0.42332,-1.53452 -0.15874,-0.79372 -0.47623,-1.4287 -0.26457,-0.68789 -0.89955,-1.11121 -0.15874,0.31749 -0.15874,0.74081 0,0.3704 0.0529,0.68789 0.10583,0.31749 0.10583,0.68789 -0.52914,0.26457 -0.79372,0.84664 -0.21166,0.52914 -0.7408,0.84663 -0.42332,1.69327 -1.21704,3.2278 -0.79372,1.48161 -1.69327,2.96322 -0.84664,1.48161 -1.64036,3.01613 -0.79372,1.48162 -1.26995,3.12197 -0.68789,0.47623 -0.95246,1.21704 -0.21166,0.7408 -0.21166,1.48161 0.47623,0.26457 1.05829,0.31749 0.63498,0 1.21704,0 0.58206,0 1.11121,0.10583 0.52915,0.10583 0.95246,0.52914 0.68789,-0.21166 1.48161,-0.26457 0.84664,-0.10583 1.37579,-0.47623 1.05829,0.3704 2.27533,0.3704 0.63497,0 1.21703,-0.10583 0.63498,-0.10583 1.21704,-0.26457 0.47623,0.10583 0.74081,0.3704 0.26457,0.21166 0.79372,0.15874 0.26457,-0.21165 0.31749,-0.42331 0.0529,-0.26458 0.26457,-0.47623 z"
         style="font-style:normal;font-variant:normal;font-weight:normal;font-stretch:normal;font-family:'Rock Salt';-inkscape-font-specification:'Rock Salt';fill:#ffffff;stroke:none"
         id="path4714" />
      <path
         d="m 202.92519,966.46003 q -0.10583,0.63498 -0.31749,1.11121 -0.15874,0.42332 -0.0529,1.16412 -0.52915,0.0529 -0.84664,0.37041 -0.26457,0.26457 -0.47623,0.63497 -0.15874,0.3704 -0.3704,0.79372 -0.15875,0.3704 -0.42332,0.68789 0.42332,1.90493 0.47623,3.86277 0.0529,1.95785 0.26457,3.86278 0.26458,2.43407 0.79372,4.81523 0.58207,2.32825 0.58207,4.76232 0,0.74081 -0.0529,1.37578 0,0.63498 0,1.32287 0,0.42332 0,0.89955 0.0529,0.42332 0.0529,0.84664 0,1.53452 -0.42332,3.06905 -0.3704,1.53452 -0.58206,3.06905 -0.63498,0.58206 -1.11121,1.26991 -0.42332,0.6879 -0.89955,1.27 -0.47623,0.5821 -1.11121,1.0054 -0.63497,0.4762 -1.58744,0.6349 -0.15874,0.5292 -0.63498,0.7938 -0.42331,0.2645 -0.7408,0.7408 l -0.10583,0 q -1.32287,0 -2.27533,-0.3704 -0.95247,-0.3704 -1.7991,-0.8467 -0.79372,-0.4762 -1.64036,-1.0053 -0.84663,-0.5292 -1.95784,-0.8467 -1.48161,-1.217 -2.69865,-2.64571 -1.21703,-1.48161 -2.75156,-2.64574 -0.3704,-1.05829 -1.00538,-1.74618 -0.58206,-0.68789 -1.16412,-1.58744 -0.26458,-0.3704 -0.42332,-0.68789 -0.10583,-0.31749 -0.31749,-0.74081 -0.15874,-0.42331 -0.52914,-0.58206 -0.31749,-0.15874 -0.58207,-0.3704 -0.42331,-1.64036 -1.21703,-3.01614 -0.79372,-1.37578 -1.85202,-2.64573 -0.31749,0.58206 -0.52914,1.26995 -0.15875,0.63498 -0.31749,1.32287 -0.15875,0.63497 -0.42332,1.32286 -0.21166,0.63498 -0.58206,1.16413 l 0,0.15874 q 0,0.26458 0.21166,0.31749 0.21166,0.0529 0.21166,0.31749 0,0.0529 -0.0529,0.10583 0,0.0529 0,0.10583 -0.26457,0.21166 -0.42332,0.52914 -0.10583,0.31749 -0.52914,0.37041 0.0529,0.26457 0.0529,0.52914 l 0,0.47624 q 0,1.53452 -0.3704,3.06905 -0.31749,1.53452 -0.31749,3.12196 l 0,0.68789 q 0,0.37038 0.0529,0.68788 0.10583,0.3175 0.31748,0.635 0.21166,0.3175 0.21166,0.5821 0,0.3704 -0.31749,0.6878 0.37041,0.2646 0.84664,0.5821 0.47623,0.3175 0.84663,0.6879 0.42332,0.4233 0.6879,0.8466 0.26457,0.4763 0.26457,1.0054 0,0.8996 -0.58206,1.27 -0.58206,0.3704 -1.4287,0.582 -0.79372,0.2117 -1.69327,0.3704 -0.84663,0.2117 -1.4287,0.6879 l -0.15874,0 q -0.63498,0 -0.95246,-0.3704 -0.31749,-0.3704 -0.95247,-0.3704 -1.00538,-1.6403 -1.37578,-3.704 -0.3704,-2.0108 -0.3704,-3.8628 0,-2.27532 0.42332,-4.55065 0.3704,-2.27533 0.95246,-4.49775 0.52915,-2.22242 1.16412,-4.39192 0.68789,-2.22241 1.26995,-4.44483 l 0.0529,-0.15874 q 0,-0.26458 -0.15874,-0.37041 -0.10583,-0.10583 -0.10583,-0.31749 0,-0.10582 0.0529,-0.10582 0.15874,-0.52915 0.31749,-1.00538 0.21166,-0.47624 0.31749,-1.0583 0.31748,-1.48161 0.42331,-3.01613 0.15875,-1.58744 0.15875,-3.12197 0.0529,-1.53453 0.10583,-3.06905 0.10583,-1.58744 0.3704,-3.12197 0.42332,-0.42331 0.79372,-0.89955 0.3704,-0.47623 0.95246,-0.84663 1.0583,0.0529 2.11659,0.31749 1.0583,0.26457 2.01076,0.84663 0.63498,2.27533 0.84663,4.55066 0.26458,2.27534 0.84664,4.55067 l 0,0.15874 q 0,0.26457 0.26457,0.26457 0.31749,-0.0529 0.47623,0.15875 -0.10582,0.15874 -0.15874,0.3704 0,0.21166 0,0.42332 l 0,0.89955 q 0.10583,0.42331 0.26457,0.89955 0.15875,0.47623 0.6879,0.58206 0.26457,1.69327 0.79372,3.12196 0.52914,1.4287 1.21703,2.75157 0.68789,1.32286 1.48161,2.64573 0.79372,1.26995 1.64036,2.69865 1.32287,1.00538 2.27533,2.32825 0.95246,1.26995 1.90493,2.48699 1.00538,1.16412 2.22242,2.06367 1.26995,0.89955 3.28071,1.11121 0.26457,-0.21166 0.3704,-0.58206 l 0.26457,-0.74081 q 0.15875,-0.3704 0.31749,-0.63498 0.21166,-0.31748 0.58206,-0.47623 0.10583,-1.48161 0.21166,-3.01613 0.15874,-1.53453 0.68789,-2.91031 -0.26457,-0.47623 -0.26457,-1.16413 0,-0.52914 0.0529,-1.00537 0.10583,-0.47624 0.10583,-0.95247 0,-1.00538 -0.42332,-1.64035 0,-0.37041 0.0529,-0.74081 0.0529,-0.42332 0.31749,-0.79372 -0.42332,-1.05829 -0.68789,-2.22242 -0.21166,-1.16412 -0.21166,-2.38116 0,-0.68789 0.15874,-1.42869 -0.31749,-0.79372 -0.42332,-1.85202 l -0.21166,-2.1695 q -0.10582,-1.11121 -0.31748,-2.06367 -0.21166,-0.95246 -0.79372,-1.53453 0.31748,-0.47623 0.31748,-1.1112 0,-1.0583 -0.31748,-2.01076 -0.31749,-0.95247 -0.31749,-2.01076 0,-0.74081 0.31749,-1.48161 1.16412,0.0529 2.27533,0.26457 1.16412,0.15875 2.27533,0.15875 0.31749,0.42331 0.7408,0.68789 0.42332,0.26457 0.89955,0.52914 0.47624,0.21166 0.89955,0.47624 0.47624,0.26457 0.74081,0.7408 z"
         style="font-style:normal;font-variant:normal;font-weight:normal;font-stretch:normal;font-family:'Rock Salt';-inkscape-font-specification:'Rock Salt';fill:#ffffff;stroke:none"
         id="path4716" />
      <path
         d="m 247.58518,997.3622 q -0.15874,0.74081 -0.68789,1.21704 -0.47623,0.42332 -1.16412,0.68789 -0.68789,0.26458 -1.4287,0.37041 -0.68789,0.0529 -1.26995,0.0529 -0.26458,0 -0.52915,0 -0.21166,-0.0529 -0.47623,-0.0529 -0.26457,0 -0.26457,0.26457 0,0.26459 -0.26458,0.37039 -0.26457,-0.1058 -0.52914,-0.1587 -0.26458,-0.053 -0.52915,-0.053 -0.3704,0 -0.74081,0.053 -0.31748,0.053 -0.63497,0.053 -0.42332,0 -0.63498,-0.1058 -0.15874,-0.10588 -0.31749,-0.21171 -0.10583,-0.15874 -0.26457,-0.31748 -0.10583,-0.15875 -0.3704,-0.26458 -0.37041,-0.15874 -0.63498,-0.0529 -0.21166,0.10583 -0.68789,-0.31749 -0.63498,-0.52915 -1.11121,-1.26995 -0.42332,-0.79372 -0.84663,-1.64036 -0.42332,-0.84663 -0.89955,-1.69327 -0.47623,-0.84663 -1.11121,-1.48161 l -0.42332,0 q -0.95246,0 -1.32287,0.79372 -0.26457,-0.15874 -0.52914,-0.3704 -0.26458,-0.26457 -0.58206,-0.42332 -1.21704,0.3704 -2.53991,0.63498 -1.32287,0.26457 -2.64573,0.26457 l -0.74081,0 q -0.31749,0 -0.68789,-0.10583 -0.52915,0.21166 -0.95246,0.52915 -0.42332,0.26457 -0.95247,0.26457 -0.31749,0 -0.7408,-0.21166 -0.31749,0 -0.31749,0.26458 0.0529,0.26457 -0.31749,0.26457 l -0.47623,0 q -0.74081,0 -1.48161,0.0529 -0.68789,0.0529 -1.4287,0.0529 -1.00538,0 -2.06367,-0.26457 -0.26457,0.15874 -0.58206,0.15874 -0.21166,0.10583 -0.31749,0.3704 -0.10583,0.21166 -0.21166,0.42332 -0.10583,0.15874 -0.31749,0.31749 -0.15874,0.10583 -0.47623,0.0529 -0.10583,0.63498 -0.52915,1.00538 -0.42331,0.3704 -0.42331,1.11121 -0.58206,0.31749 -0.95247,0.79372 -0.3704,0.47623 -0.7408,1.00538 -0.37041,0.52912 -0.79372,1.00542 -0.37041,0.4762 -0.95247,0.7408 -0.26457,0.3175 -0.15874,1.0053 -0.58206,0.4763 -1.4287,0.8467 -0.84663,0.3704 -1.58744,0.3704 -1.53452,0 -2.11659,-1.6404 0,-0.5291 0.10583,-1.1112 0.0529,-0.635 0.21166,-1.16411 0.15875,-0.58206 0.47623,-1.00537 0.31749,-0.47624 0.89955,-0.6879 0,-0.47623 -0.31748,-0.63497 -0.31749,-0.21166 -0.26458,-0.68789 1.4287,-0.68789 2.48699,-1.7991 1.0583,-1.11121 1.90493,-2.32825 0.89955,-1.26995 1.7991,-2.5399 0.89955,-1.26995 2.01076,-2.27533 l 0,-1.11121 q 1.58744,-1.69327 2.06367,-3.80986 0.58206,-0.10583 0.74081,-0.52915 0.21165,-0.42331 0.21165,-1.00537 0.26458,0 0.31749,-0.21166 0.10583,-0.26458 0.47624,-0.15875 0.47623,-1.26995 1.05829,-2.32824 0.58206,-1.0583 1.16412,-2.11659 0.58206,-1.11121 1.00538,-2.27533 0.47623,-1.16412 0.68789,-2.59282 0.74081,-0.0529 0.79372,-0.68789 0.10583,-0.68789 0.21166,-1.21704 0.79372,-0.7408 1.16412,-1.74618 0.42332,-1.00538 0.74081,-2.06368 0.31749,-1.1112 0.68789,-2.1695 0.42332,-1.11121 1.16412,-1.95784 l 0,-0.15874 q 0,-0.26458 -0.21166,-0.31749 -0.21165,-0.10583 -0.21165,-0.37041 0.0529,-0.0529 0.0529,-0.10583 0.63498,-0.26457 0.95246,-0.84663 0.31749,-0.63498 0.95247,-0.89955 1.11121,0.89955 1.95784,1.11121 0.84664,0.15874 2.22242,0.26457 0.68789,0.74081 0.7408,1.7991 0.10583,1.00538 0.37041,2.01076 0.42331,1.69327 0.89955,3.33362 0.52914,1.58744 0.79372,3.28071 0.15874,1.00538 0.58206,1.90493 0.42331,0.89955 0.58206,1.85202 0.10583,0.7408 0,1.69327 -0.10583,0.89955 0.21166,1.58744 l 0.3704,0.84663 q 0.26457,0.58206 0.42332,1.21704 0.21166,0.63497 0.3704,1.26995 0.42332,1.58744 0.74081,3.43946 0.3704,1.79909 1.1112,3.28071 0.26458,0.52914 0.79372,0.7408 0.58207,0.21166 1.26996,0.31749 0.68789,0.0529 1.32286,0.0529 0.68789,-0.0529 1.16413,-0.0529 l 0.52914,0 q 0.31749,0 0.63498,0.10583 0.21166,0.42332 0.21166,0.7408 0,0.63498 -0.42332,1.00538 -0.42332,0.37041 -0.42332,0.84664 0,0.26457 0.21166,0.58206 -0.21166,-0.0529 -0.63497,-0.0529 -1.21704,0 -2.38116,0.42332 0.42331,0.89955 1.1112,1.53453 0.74081,0.58206 1.53453,1.11121 0.52915,-0.42332 1.11121,-0.42332 0.63497,0 1.16412,0.31749 0.58206,0.26457 1.21704,0.26457 0.47623,0 0.68789,-0.15874 0.42332,0.47623 0.68789,1.00537 0.26457,0.47624 0.68789,0.89955 z m -16.56229,-8.46634 q -0.10583,-0.89955 -0.37041,-1.26996 -0.21166,-0.42331 -0.3704,-1.00538 -0.21166,-0.7408 -0.31749,-1.58744 -0.0529,-0.84663 -0.21166,-1.64035 -0.3704,-1.7991 -0.84663,-3.5982 -0.42332,-1.7991 -1.11121,-3.49237 0.21166,-0.31749 0.21166,-0.58206 l 0,-0.15874 q -0.47623,-0.52915 -0.68789,-1.26996 -0.21166,-0.79372 -0.42332,-1.53452 -0.15874,-0.79372 -0.47623,-1.4287 -0.26457,-0.68789 -0.89955,-1.11121 -0.15874,0.31749 -0.15874,0.74081 0,0.3704 0.0529,0.68789 0.10583,0.31749 0.10583,0.68789 -0.52915,0.26457 -0.79372,0.84664 -0.21166,0.52914 -0.74081,0.84663 -0.42331,1.69327 -1.21703,3.2278 -0.79372,1.48161 -1.69327,2.96322 -0.84664,1.48161 -1.64036,3.01613 -0.79372,1.48162 -1.26995,3.12197 -0.68789,0.47623 -0.95247,1.21704 -0.21165,0.7408 -0.21165,1.48161 0.47623,0.26457 1.05829,0.31749 0.63498,0 1.21704,0 0.58206,0 1.11121,0.10583 0.52914,0.10583 0.95246,0.52914 0.68789,-0.21166 1.48161,-0.26457 0.84664,-0.10583 1.37578,-0.47623 1.0583,0.3704 2.27533,0.3704 0.63498,0 1.21704,-0.10583 0.63498,-0.10583 1.21704,-0.26457 0.47623,0.10583 0.7408,0.3704 0.26458,0.21166 0.79372,0.15874 0.26458,-0.21165 0.31749,-0.42331 0.0529,-0.26458 0.26458,-0.47623 z"
         style="font-style:normal;font-variant:normal;font-weight:normal;font-stretch:normal;font-family:'Rock Salt';-inkscape-font-specification:'Rock Salt';fill:#ffffff;stroke:none"
         id="path4718" />
      <path
         d="m 280.65686,967.57124 0,0.21166 q -0.37041,0.10583 -0.37041,0.52915 -0.58206,0.26457 -1.21703,0.42331 -0.63498,0.10583 -1.21704,0.37041 -0.58206,-0.0529 -1.21704,-0.0529 -0.58206,-0.0529 -1.16412,-0.0529 -1.58744,0 -3.17488,0.10583 -1.58744,0.10582 -3.17488,0 -0.74081,0.42331 -1.64036,0.68789 -0.84663,0.21165 -1.64035,0.21165 -0.63498,0 -1.11121,-0.15874 -1.26995,0.63498 -2.80448,1.05829 -1.48161,0.42332 -3.01614,0.84664 -1.53452,0.3704 -2.96322,0.89955 -1.37578,0.47623 -2.43407,1.37578 -0.10583,0.74081 -0.15875,1.48161 -0.0529,0.68789 -0.0529,1.37578 0,0.74081 0.0529,1.37578 0.10583,0.63498 0.37041,1.26996 0.26457,0.10583 0.58206,0.15874 0.3704,0.0529 0.63497,0.0529 0.26458,0 0.52915,-0.0529 0.26457,-0.10583 0.3704,-0.3704 0.79372,-0.10583 1.58744,-0.0529 0.79372,0 1.58744,0 0.79372,0 1.53453,-0.0529 0.79372,-0.0529 1.53452,-0.26457 0.84664,-0.21166 1.64036,-0.26458 0.84663,-0.0529 1.64035,-0.10583 0.79372,-0.0529 1.64036,-0.15874 0.84663,-0.15875 1.74618,-0.58206 0.68789,0.26457 1.37579,0.26457 0.7408,0 1.42869,0.10583 0.3704,0.26457 0.58206,0.58206 0.26458,0.31749 0.26458,0.74081 0,0.7408 -0.52915,1.48161 -0.52915,0.7408 -0.84663,1.37578 l -0.58207,0 q -1.26995,0 -2.48699,0.3704 -1.16412,0.31749 -2.38116,0.79372 -1.16412,0.42332 -2.38116,0.79372 -1.16412,0.31749 -2.43407,0.31749 -0.21166,0 -0.26458,0.26457 0,0.21166 -0.10583,0.31749 -0.26457,-0.0529 -0.79372,-0.0529 -1.21703,0 -2.32824,0.26457 -1.11121,0.26457 -2.27533,0.26457 -0.31749,0 -0.63498,0 -0.31749,-0.0529 -0.63497,-0.10582 -0.26458,0.42331 -0.6879,0.58206 -0.42331,0.10583 -0.79372,0.42331 -0.15874,0.47624 -0.21165,1.16413 0,0.68789 -0.0529,1.42869 0,0.68789 -0.10583,1.32287 -0.10583,0.63498 -0.42332,1.00538 0.0529,0.26457 0.42332,0.21166 0.3704,-0.10583 0.3704,0.31749 0,0.47623 -0.10583,1.00538 -0.10582,0.52914 -0.10582,1.05829 0,1.00538 0.21165,2.22242 0.26458,1.16412 0.74081,2.1695 0.52915,1.00538 1.37578,1.69327 0.84664,0.635 2.11659,0.635 0.84663,0 1.58744,-0.3175 0.7408,-0.3175 1.21704,-1.05831 l 0.26457,-0.0529 q 0.21166,0 0.3704,0.0529 0.21166,0.0529 0.42332,0.0529 0.31749,0 0.79372,-0.37041 0.52915,-0.42331 1.11121,-0.95246 0.63497,-0.52915 1.26995,-1.00538 0.63498,-0.52915 1.21704,-0.74081 0.3704,-0.7408 0.68789,-1.48161 0.3704,-0.7408 1.05829,-1.16412 l 0,-1.53453 q 0.52915,-0.58206 1.11121,-1.05829 0.63498,-0.47623 0.95247,-1.21704 0.26457,0.10583 0.47623,0.15875 0.26457,0.0529 0.52914,0.0529 0.26458,0 0.52915,-0.0529 0.31749,-0.0529 0.58206,-0.15875 0.42332,0.58207 0.63498,1.32287 0.26457,0.68789 0.63497,1.32287 -0.47623,0.95246 -1.1112,2.27533 -0.63498,1.32287 -1.37579,2.64573 -0.7408,1.32287 -1.58744,2.53994 -0.79372,1.1641 -1.58744,1.7991 -0.15874,0.1587 -0.68789,0.3704 -0.58206,0.4233 -1.05829,0.7937 -0.47623,0.4233 -0.89955,0.9525 -1.53453,0.4762 -2.96322,1.2699 -1.37578,0.7937 -2.75157,1.5345 -0.63497,-0.1587 -1.37578,-0.1587 -0.63497,0 -1.26995,0.053 -0.63498,0.1058 -1.37578,0.1058 -0.21166,-0.2645 -0.63498,-0.3704 -0.3704,-0.053 -0.26457,-0.5291 -1.7991,-0.1058 -2.91031,-1.0054 -1.11121,-0.8466 -1.90493,-2.1166 -0.7408,-1.2699 -1.21703,-2.7515 -0.47624,-1.48166 -1.00538,-2.85744 l 0,-0.15874 q 0,-0.26458 0.21166,-0.31749 0.21165,-0.0529 0.21165,-0.31749 0,-0.10583 -0.0529,-0.15874 -0.15874,-0.58207 -0.26457,-1.00538 -0.10583,-0.42332 -0.10583,-1.00538 0,-0.84664 0.10583,-1.64036 0.10583,-0.84663 0.10583,-1.69327 0,-0.84663 -0.21166,-1.48161 0.21166,-0.26457 0.3704,-0.68789 0.10583,-0.47623 0.15874,-0.95246 0.0529,-0.47624 0.0529,-0.95247 0.0529,-0.47623 0.15874,-0.84663 -0.21166,-0.58206 -0.3704,-1.00538 -0.15874,-0.47623 -0.15874,-1.11121 l 0,-0.3704 q 0.52914,-0.89955 0.89955,-1.85202 0.3704,-0.95246 0.79372,-1.95784 l 0,-0.15874 q 0,-1.53453 -0.10583,-3.06905 -0.10583,-1.53453 -0.10583,-3.06906 l 0,-1.00537 q 0,-0.52915 0.0529,-1.00538 0.42332,-0.21166 0.63498,-0.58206 0.21166,-0.37041 0.63497,-0.58207 l 1.74619,0 0.31749,-0.52914 q 0.15874,-0.26458 0.21166,-0.58206 0.58206,-0.15875 1.1112,-0.42332 0.58207,-0.31749 1.0583,-0.63498 0.7408,-0.42332 1.32286,-0.7408 0.63498,-0.37041 1.21704,-0.58207 0.63498,-0.26457 1.32287,-0.42331 0.68789,-0.15875 1.58744,-0.26458 0.42332,0 0.52915,-0.15874 0.15874,-0.15874 0.42331,-0.3704 0.63498,0.10583 1.26996,0.21166 0.63497,0.0529 1.26995,0.0529 1.26995,0 2.38116,-0.47623 1.58744,0 3.12196,-0.0529 1.58744,-0.0529 3.17489,-0.0529 1.37578,0 2.75156,0.10583 1.37578,0.10583 2.69865,0.3704 0.47623,-0.15874 1.05829,-0.15874 0.63498,0 1.26995,0.15874 0.68789,0.10583 1.32287,0 0.0529,0.58206 0.26457,1.00538 0.26458,0.3704 0.26458,0.89955 z"
         style="font-style:normal;font-variant:normal;font-weight:normal;font-stretch:normal;font-family:'Rock Salt';-inkscape-font-specification:'Rock Salt';fill:#ffffff;stroke:none"
         id="path4720" />
      <path
         d="m 311.13571,992.6528 q -0.21166,0.79372 -0.6879,1.32286 -0.47623,0.52915 -1.1112,0.95247 -0.58206,0.42332 -1.26996,0.79372 -0.68789,0.31749 -1.32286,0.7408 l -0.68789,0 q -2.22242,0 -3.43946,-1.05829 -1.16412,-1.11121 -1.7991,-2.69865 -0.63497,-1.64035 -0.95246,-3.49237 -0.26457,-1.85201 -0.68789,-3.38654 -0.63498,0.52915 -1.0583,1.26996 -0.42331,0.68789 -0.89954,1.37578 -0.42332,0.68789 -1.00538,1.26995 -0.52915,0.58206 -1.4287,0.79372 -0.15874,0.3704 -0.3704,0.74081 -0.15875,0.3704 -0.21166,0.79372 -1.16412,0.63497 -2.11659,1.48161 -0.95246,0.84663 -1.90493,1.74618 -0.95246,0.89955 -1.95784,1.74619 -0.95246,0.79372 -2.1695,1.32286 -0.0529,-0.0529 -0.21166,-0.0529 -0.63498,0 -1.16412,0.31749 -0.52915,0.26457 -1.16413,0.26457 -0.42331,0 -0.79372,-0.15874 -0.31749,-0.15875 -0.68789,-0.37041 -0.31749,-0.21166 -0.68789,-0.31749 -0.3704,-0.10582 -0.79372,-0.0529 -0.52915,-0.95246 -1.4287,-1.74618 -0.84663,-0.84664 -1.05829,-1.90493 -0.10583,-0.47623 -0.15874,-0.95247 0,-0.52914 -0.10583,-1.05829 -0.15875,-0.79372 -0.42332,-1.58744 -0.26457,-0.84664 -0.42332,-1.69327 0.26458,-1.4287 0.52915,-3.12197 0.21166,-1.74618 0.52915,-3.43945 0.3704,-1.74619 0.95246,-3.28071 0.63498,-1.58744 1.58744,-2.69865 l -0.0529,-0.3704 q 0,-0.84664 0.31748,-1.58744 0.31749,-0.74081 0.6879,-1.4287 0.3704,-0.68789 0.63497,-1.37578 0.26457,-0.68789 0.10583,-1.53453 0.63498,-0.31748 1.32287,-0.52914 0.68789,-0.21166 1.42869,-0.21166 0.6879,0 1.26996,0.21166 -0.10583,0.42331 0.3704,0.52914 l 0,0.15875 q 0,1.11121 -0.26457,2.1695 -0.26458,1.05829 -0.63498,2.11659 -0.3704,1.00538 -0.74081,2.06367 -0.31748,1.00538 -0.47623,2.06367 -0.21166,0.0529 -0.31749,0.21166 -0.0529,0.15874 -0.10583,0.31749 -0.0529,0.15874 -0.15874,0.26457 -0.10583,0.10583 -0.31749,0.10583 -0.31749,1.85201 -0.68789,3.70403 -0.31749,1.7991 -0.31749,3.65111 0,1.11121 0.21166,2.27533 0.21166,1.16413 0.79372,2.22242 l 0.21166,-0.0529 q 0.58206,0 0.89955,0.26458 0.3704,0.26457 0.95247,0.52914 0.42331,-0.10582 0.79372,-0.26457 0.3704,-0.21166 0.31748,-0.68789 0.68789,-0.0529 1.16413,-0.31749 0.47623,-0.31749 0.84663,-0.68789 l 0.79372,-0.7408 q 0.42332,-0.37041 1.00538,-0.52915 0,-0.31749 0.15874,-0.47623 l 0.31749,-0.31749 q 0.15875,-0.15874 0.21166,-0.31749 0.10583,-0.21166 0.0529,-0.58206 0.63497,-0.0529 0.95246,-0.31749 0.3704,-0.26457 0.63498,-0.58206 0.31748,-0.3704 0.58206,-0.74081 0.26457,-0.3704 0.68789,-0.63497 0.3704,-0.79372 1.00538,-2.11659 0.68789,-1.32287 1.32286,-2.75156 0.6879,-1.4287 1.16413,-2.69865 0.52914,-1.32287 0.52914,-2.01076 0,-0.26457 -0.15874,-0.47623 -0.10583,-0.21166 -0.0529,-0.47623 l 0,-0.15875 q 0.42331,-0.52914 0.7408,-1.16412 0.3704,-0.63498 0.74081,-1.21704 0.42331,-0.58206 0.89955,-1.05829 0.47623,-0.47623 1.21703,-0.74081 0.84664,0.26458 1.69327,0.37041 0.89955,0.10583 1.69327,0.42331 0.0529,1.32287 0.26458,3.06906 0.21166,1.74618 0.7408,2.96322 0,0.68789 -0.0529,1.32286 0,0.63498 0,1.26996 0,1.05829 0.0529,2.1695 0.10583,1.11121 0.3704,2.06367 -0.3704,0.79372 -0.3704,1.69327 0,1.21704 0.3704,2.32825 0.37041,1.05829 0.52915,2.27533 0.68789,0.95246 1.7991,0.95246 0.26457,0 0.42332,-0.0529 0.21166,-0.0529 0.42332,-0.15875 0.42331,0.47624 0.7408,0.95247 0.3704,0.42331 0.84664,0.79372 z"
         style="font-style:normal;font-variant:normal;font-weight:normal;font-stretch:normal;font-family:'Rock Salt';-inkscape-font-specification:'Rock Salt';fill:#ffffff;stroke:none"
         id="path4722" />
      <path
         d="m 363.78582,994.55773 q -0.26458,0.84663 -0.15875,1.69327 -0.15874,0.21165 -0.3704,0.26457 -0.21166,0.0529 -0.42332,0.15874 -0.21165,0.0529 -0.3704,0.21166 -0.10583,0.10583 0,0.47623 -1.74618,0.10583 -3.33362,0.74081 -1.58744,0.63498 -3.12197,1.37578 -0.79372,-0.26457 -1.37578,-0.63497 -0.58206,-0.37041 -1.48161,-0.47624 -0.89955,-1.7991 -1.69327,-3.75694 -0.74081,-2.01076 -0.74081,-4.02151 0,-1.48162 0.52915,-2.69865 0,-1.58744 0.26457,-3.12197 0.26458,-1.53453 0.58206,-3.01614 0.37041,-1.53452 0.63498,-3.06905 0.26457,-1.53452 0.26457,-3.12196 l 0,-1.16413 q -0.10583,0 -0.26457,0.26458 -0.15874,0.21166 -0.31749,0.52914 -0.10583,0.26458 -0.21166,0.52915 -0.10583,0.26457 -0.15874,0.31749 -0.89955,0.68789 -1.4287,1.74618 -0.47623,1.00538 -1.05829,1.90493 -0.74081,1.11121 -1.58744,2.1695 -0.79372,1.0583 -2.01076,1.64036 l 0,0.10583 q 0,0.26457 -0.15874,0.3704 -0.15875,0.10583 -0.0529,0.52915 -1.32286,0.42331 -2.48699,1.21703 -1.11121,0.79372 -1.85201,2.01076 -1.05829,0.26458 -2.01076,0.74081 -0.89955,0.42332 -1.85201,0.95246 -0.42332,0.21166 -0.89955,0.52915 -0.47623,0.31749 -0.95247,0.42332 -0.42331,0.15874 -1.16412,0.21166 -0.68789,0.0529 -1.48161,0.10582 -0.74081,0.0529 -1.48161,0.0529 l -1.16412,0 q -0.26458,0 -0.6879,-0.26457 -0.42331,-0.26458 -0.95246,-0.58207 -0.47623,-0.31748 -1.00538,-0.58206 -0.52915,-0.31749 -1.00538,-0.42331 -0.42331,-1.37579 -1.21703,-2.43408 -0.74081,-1.11121 -1.58745,-2.22242 -0.26457,-1.26995 -0.7408,-2.64573 -0.42332,-1.37578 -1.53453,-2.27533 0.26458,-0.3704 0.26458,-0.84664 0,-0.58206 -0.26458,-1.1112 -0.26457,-0.52915 -0.26457,-1.16413 0,-0.42332 0.0529,-0.63497 -0.58206,0.63497 -0.84663,1.64035 -0.21166,0.95247 -0.21166,1.74619 0,0.63497 0.15875,1.16412 -0.52915,0.7408 -0.6879,1.85201 -0.10582,1.11121 -0.10582,1.95785 0,1.05829 0.15874,2.06367 -0.84664,0.84663 -0.84664,2.06367 0,0.68789 0.31749,1.21704 0,0.21166 -0.10583,0.31749 -0.10583,0.10583 -0.26457,0.15874 -0.10583,0.0529 -0.26457,0.15874 -0.10583,0.0529 -0.10583,0.26458 0,0.26457 0,0.58206 0.0529,0.31749 0.0529,0.63498 0,0.7408 -0.0529,1.53452 -0.0529,0.79372 -0.0529,1.53453 0,1.53452 0.26458,2.22241 0.31748,0.63498 0.7408,0.95247 0.47623,0.31749 1.00538,0.63497 0.52915,0.31749 1.05829,1.21704 -0.15874,0.47623 -0.58206,0.79371 -0.3704,0.2646 -0.7408,0.5821 -0.31749,0.2645 -0.58206,0.6349 -0.26458,0.3705 -0.21166,1.0583 l -0.26458,0 q -0.68789,0 -1.32286,0.2117 -0.63498,0.2117 -1.32287,0.2117 -0.15875,0 -0.31749,-0.053 -0.15874,0 -0.31749,0 l -0.52914,-0.3174 q -0.26458,-0.1588 -0.52915,-0.1588 -0.26457,0 -0.68789,0.1058 -0.74081,-2.3811 -1.16412,-4.92102 -0.37041,-2.53991 -0.37041,-4.97398 0,-0.26458 0.10583,-0.52915 0.15875,-0.31749 0.42332,-0.21166 l 0,-1.00538 q 0,-1.64035 0.26457,-3.17488 0.31749,-1.58744 0.31749,-3.28071 0,-0.47623 -0.0529,-0.95246 0,-0.47623 -0.0529,-0.89955 0.26458,-0.89955 0.52915,-1.7991 0.31749,-0.95246 0.31749,-1.95784 0,-0.42332 -0.15875,-1.00538 0.42332,-0.31749 0.63498,-0.79372 0.21166,-0.52915 0.31749,-1.11121 0.10583,-0.63498 0.15874,-1.21704 0.0529,-0.58206 0.10583,-1.05829 0.52915,-1.0583 0.58206,-2.27533 0.0529,-1.21704 0.52915,-2.27533 -0.0529,-0.21166 -0.0529,-0.74081 0,-1.05829 0.31749,-2.11659 0.3704,-1.11121 1.4287,-1.69327 0.95246,0.37041 2.22241,0.37041 1.21704,0 2.32825,-0.37041 0.31749,0.10583 0.58206,0.26458 0.26458,0.10583 0.52915,0.26457 0.31749,0.10583 0.63497,0.21166 0.31749,0.0529 0.74081,0 0.52915,1.53452 0.89955,3.12196 0.42332,1.58744 0.63498,3.2278 0.10583,0.68789 0.0529,1.48161 0,0.79372 0.10583,1.48161 0.0529,0.42332 0.26457,0.79372 0.21166,0.31749 0.42332,0.74081 0.21166,0.42332 0.31749,0.95246 0.15874,0.52915 0.10583,1.32287 0.58206,1.37578 1.26995,2.64573 0.74081,1.21704 1.58744,2.43408 0.47623,0.15874 0.84664,0.42332 0.3704,0.21165 0.47623,0.7408 0.47623,0 0.84663,0.15875 l 0.89955,0.26457 q 2.01076,-0.63498 3.70403,-1.69327 1.74618,-1.05829 3.65111,-1.7991 2.32825,-2.27533 4.02152,-5.02689 1.69327,-2.80448 3.38654,-5.55605 l 0,-1.16412 q 0.31749,-0.15874 0.52914,-0.3704 0.26458,-0.26458 0.63498,-0.3704 0.0529,-0.63498 0.26457,-1.21704 0.26458,-0.63498 0.52915,-1.16413 0.31749,-0.58206 0.52915,-1.1112 0.21166,-0.58206 0.21166,-1.21704 0,-0.3704 -0.0529,-0.63498 0.79372,-0.79372 1.90493,-0.79372 1.05829,0 2.11659,0.52915 1.11121,0.47623 2.06367,0.89955 0.58206,1.26995 0.84663,2.69865 0.31749,1.37578 0.42332,2.85739 0.10583,1.48161 0.10583,2.96322 l 0,3.75694 q -0.0529,0.42332 -0.31749,0.63498 -0.21166,0.15874 -0.31748,0.52915 l 0,0.52914 q 0,0.26458 -0.0529,0.52915 0,1.11121 -0.26457,2.32825 -0.26458,1.53452 -0.68789,3.12196 -0.37041,1.53453 -0.37041,3.12197 0,0.58206 0.0529,1.16412 0.0529,0.58206 0.21166,1.16412 -0.26458,0.47624 -0.26458,1.21704 0,0.84664 0.26458,1.58744 0.31749,0.68789 0.7408,1.37578 0.74081,0 1.48161,-0.0529 0.74081,-0.0529 1.53453,-0.0529 0.7408,0 1.37578,0.15874 0.63498,0.10583 1.32287,0.52915 z"
         style="font-style:normal;font-variant:normal;font-weight:normal;font-stretch:normal;font-family:'Rock Salt';-inkscape-font-specification:'Rock Salt';fill:#ffffff;stroke:none"
         id="path4724" />
    </g>
  </g>
</svg>
